<svg id="b85b2b06-8cee-4c04-946a-2dba485d04f3" data-name="Layer 1" xmlns="http://www.w3.org/2000/svg" viewBox="0 0 16 16"><path d="M3,7.51l.27.25A4.66,4.66,0,0,0,5,9a.26.26,0,0,1,.2.33.76.76,0,0,0,.33.73c.77.66,1.52,1.34,2.27,2a.31.31,0,0,0,.5,0C9,11.33,9.8,10.64,10.59,10a.34.34,0,0,0,.1-.47,1.75,1.75,0,0,0-1.64-1H7A4,4,0,0,1,2.92,4.4c0-.51,0-1,0-1.53a.32.32,0,0,1,.24-.37L7.8.86a.67.67,0,0,1,.42,0L12.83,2.5a.31.31,0,0,1,.25.36V7a1.09,1.09,0,0,1-.08.28,1.46,1.46,0,0,1-.24-.17A4.76,4.76,0,0,0,11.1,5.81a.37.37,0,0,1-.26-.41,6.46,6.46,0,0,0,0-.88.4.4,0,0,0-.19-.28C9.82,3.87,9,3.51,8.15,3.16a.56.56,0,0,0-.36,0c-.8.34-1.59.69-2.39,1a.36.36,0,0,0-.25.41A1.74,1.74,0,0,0,6.84,6.23H9a4,4,0,0,1,4.1,4.3.5.5,0,0,1-.15.32c-1.56,1.41-3.13,2.8-4.7,4.21-.17.16-.29.14-.45,0-1.56-1.4-3.13-2.79-4.68-4.19a.47.47,0,0,1-.16-.32c0-.91,0-1.82,0-2.73A2.18,2.18,0,0,1,3,7.51Z" fill="#ff0013" stroke="#000" stroke-miterlimit="10" stroke-width="0.15"/><circle cx="8" cy="8" r="7.81" fill="none" stroke="#000" stroke-miterlimit="10" stroke-width="0.15"/></svg>